<svg version="1.1" id="Layer_1" xmlns="http://www.w3.org/2000/svg" xmlns:xlink="http://www.w3.org/1999/xlink" x="0px" y="0px"
	 width="100%" viewBox="0 0 1024 1024" enable-background="new 0 0 1024 1024" xml:space="preserve">
<path fill="#000000" opacity="1.000000" stroke="none" 
	d="
M380.336670,572.000122 
	C380.332703,579.332703 380.169525,586.170410 380.387756,592.995911 
	C380.505981,596.693665 379.140320,598.076660 375.490570,597.993408 
	C368.328186,597.829834 361.154419,598.082031 353.996613,597.835144 
	C350.631073,597.719055 349.198608,598.507996 349.258759,602.188293 
	C349.449371,613.850586 349.434479,625.519348 349.275177,637.182495 
	C349.226410,640.750610 350.610016,641.823853 353.995758,641.738586 
	C360.823944,641.566528 367.671143,641.937561 374.488251,641.614380 
	C379.111877,641.395142 380.449493,643.052673 380.431366,647.601807 
	C380.280396,685.430481 380.346649,723.260071 380.347290,761.089355 
	C380.347290,761.589294 380.418091,762.101074 380.336639,762.587341 
	C379.451843,767.871887 382.008209,768.961609 386.850159,768.906921 
	C407.512024,768.673767 428.177979,768.799622 448.842438,768.799133 
	C455.804474,768.798950 455.834564,768.822876 455.890839,775.700256 
	C455.919464,779.199463 455.874756,782.699219 455.902985,786.198425 
	C455.926270,789.085144 454.653748,790.347412 451.655243,790.341309 
	C422.825165,790.282532 393.994873,790.277283 365.164825,790.343628 
	C361.836151,790.351257 360.763458,788.830933 360.833801,785.777222 
	C360.918152,782.113342 360.665375,778.436768 360.858521,774.781555 
	C361.045441,771.243652 359.518066,770.103333 356.138000,770.169983 
	C348.641754,770.317932 341.131683,769.994202 333.644592,770.294800 
	C328.967529,770.482666 327.659149,768.679138 327.672607,764.181030 
	C327.799530,721.852661 327.746307,679.523621 327.743774,637.194824 
	C327.743347,630.370178 327.740295,630.368469 320.881012,630.363037 
	C313.715118,630.357300 306.546906,630.246399 299.384369,630.399719 
	C295.990540,630.472290 294.505493,629.293945 294.671265,625.783569 
	C294.859680,621.793152 294.850037,617.779724 294.658630,613.789062 
	C294.483948,610.147217 295.916931,608.675842 299.597534,608.754944 
	C306.926697,608.912537 314.273102,608.555603 321.590027,608.894165 
	C326.352081,609.114502 327.863892,607.601746 327.840942,602.720764 
	C327.653687,562.892578 327.727539,523.063110 327.722229,483.234039 
	C327.721222,475.686646 327.721802,475.684418 335.449005,475.679016 
	C342.114960,475.674347 348.788757,475.479218 355.444031,475.744995 
	C359.702484,475.915070 361.188141,474.182312 360.810059,470.158600 
	C360.639343,468.341736 360.776276,466.494995 360.789459,464.661926 
	C360.860931,454.739502 359.911163,455.669617 370.071808,455.657959 
	C396.735596,455.627411 423.400024,455.733551 450.062622,455.552368 
	C454.580200,455.521698 456.514465,456.783295 456.094849,461.460052 
	C455.798279,464.765228 455.905823,468.129883 456.109192,471.451050 
	C456.375427,475.798492 454.524170,477.252289 450.216644,477.210999 
	C430.386993,477.020813 410.554932,477.080505 390.723755,477.051514 
	C389.223907,477.049316 387.711517,477.180298 386.226593,477.032135 
	C381.728882,476.583344 380.214844,478.349426 380.245636,483.011597 
	C380.440338,512.506653 380.339600,542.003662 380.336670,572.000122 
z"/>
<path fill="#000000" opacity="1.000000" stroke="none" 
	d="
M600.680725,693.999878 
	C600.679382,678.171753 600.838135,662.840881 600.581482,647.517029 
	C600.502563,642.805664 602.183228,641.439148 606.658691,641.622681 
	C613.644348,641.909180 620.651978,641.609558 627.647766,641.719421 
	C630.632263,641.766235 631.810852,640.628235 631.789124,637.610413 
	C631.705139,625.948486 631.685303,614.284180 631.837585,602.623352 
	C631.883484,599.107849 630.444153,597.880005 627.104553,597.929260 
	C620.275208,598.029968 613.436768,597.772278 606.614502,598.014404 
	C602.132385,598.173462 600.559570,596.665710 600.581848,591.995728 
	C600.754395,555.842102 600.587646,519.686768 600.785583,483.533417 
	C600.812866,478.540802 599.491211,476.900513 594.360596,476.965851 
	C573.537659,477.231018 552.708374,476.965973 531.884033,477.169250 
	C527.155090,477.215424 525.509155,475.812805 525.552979,470.937653 
	C525.690552,455.642334 525.511780,455.642365 540.551025,455.642883 
	C565.042725,455.643768 589.535950,455.784760 614.024902,455.526489 
	C619.177002,455.472168 620.513733,457.096985 620.427673,462.061920 
	C620.191772,475.670776 620.402222,475.674500 633.875854,475.677338 
	C638.207703,475.678223 642.563049,475.961609 646.865295,475.604858 
	C651.816956,475.194244 653.490540,476.824585 653.447205,481.994995 
	C653.210022,510.316742 653.332153,538.641541 653.333313,566.965271 
	C653.333862,579.294434 653.446594,591.625061 653.278625,603.951843 
	C653.228210,607.656433 654.491394,608.961975 658.189148,608.865479 
	C666.014587,608.661255 673.851135,608.904846 681.678589,608.744995 
	C685.098022,608.675171 686.535767,609.877686 686.372803,613.377502 
	C686.179260,617.533691 686.168518,621.713867 686.377991,625.868591 
	C686.557861,629.437622 685.006409,630.480347 681.646362,630.407471 
	C674.152466,630.244873 666.641907,630.601929 659.158936,630.273621 
	C654.447754,630.066895 653.238647,631.845520 653.253235,636.346924 
	C653.389709,678.498901 653.330261,720.651428 653.319641,762.803833 
	C653.317749,770.203796 653.300964,770.204590 645.887085,770.211609 
	C638.722900,770.218323 631.557617,770.297485 624.395020,770.193542 
	C621.398926,770.150146 620.178284,771.327209 620.284851,774.332458 
	C620.420654,778.159180 620.185242,781.999084 620.319458,785.825928 
	C620.429260,788.956665 619.291809,790.347229 616.004639,790.339661 
	C587.347839,790.273865 558.690796,790.274841 530.033997,790.338684 
	C526.814575,790.345886 525.523987,789.090515 525.638855,785.899597 
	C525.776733,782.072815 525.897766,778.218079 525.594971,774.409729 
	C525.243835,769.992615 526.957825,768.664917 531.319458,768.705505 
	C552.143982,768.899414 572.971191,768.810669 593.797485,768.805542 
	C600.672058,768.803833 600.678162,768.780762 600.679138,761.976501 
	C600.682312,739.484314 600.680725,716.992126 600.680725,693.999878 
z"/>
<path fill="#000000" opacity="1.000000" stroke="none" 
	d="
M575.377747,523.920776 
	C579.562927,533.739746 578.035645,541.876770 570.470337,549.255859 
	C561.267761,558.231995 549.870972,563.316528 537.632446,566.415833 
	C500.948181,575.706116 464.543854,575.371033 428.734955,562.183960 
	C421.036682,559.348999 414.020081,555.097351 408.209412,549.150452 
	C399.060944,539.787476 398.577637,528.619568 407.129822,518.745728 
	C413.632996,511.237549 422.236694,506.841736 431.417389,503.520691 
	C455.117584,494.947296 479.501953,492.400970 504.593964,494.492554 
	C522.856445,496.014832 540.456543,499.625519 556.954529,507.737823 
	C564.381653,511.389893 570.781677,516.389648 575.377747,523.920776 
z"/>
<path fill="#000000" opacity="1.000000" stroke="none" 
	d="
M588.409912,280.627655 
	C570.533997,274.469513 552.244873,271.386475 534.475098,266.334290 
	C522.591797,262.955688 510.859589,259.212189 500.494293,252.205490 
	C468.371460,230.491211 470.021118,187.030884 503.639557,167.640396 
	C520.691895,157.804901 539.349182,152.253052 558.065125,146.782394 
	C570.685242,143.093521 583.349915,139.464600 594.924011,132.974197 
	C610.077637,124.476463 613.500000,112.075577 604.945496,96.872337 
	C604.405945,95.913399 603.335388,95.063744 604.181519,93.594818 
	C604.569519,93.613892 605.156799,93.457924 605.449768,93.683723 
	C619.663147,104.639671 622.063843,129.383682 610.080872,142.550812 
	C605.293274,147.811523 599.213806,151.438538 592.659363,153.973709 
	C575.737610,160.518829 558.679932,166.711716 541.721802,173.164032 
	C534.833496,175.784943 528.448608,179.332825 523.001038,184.425751 
	C510.732330,195.895752 510.034088,212.913818 521.187378,225.566528 
	C529.241516,234.703430 539.640869,240.131210 550.529907,244.944443 
	C570.525269,253.782913 591.742859,259.170166 612.119202,266.921539 
	C621.673218,270.555969 630.786194,275.007935 638.157166,282.328003 
	C650.297119,294.384064 652.206665,312.885406 642.640991,325.594360 
	C638.405945,331.220917 632.451843,333.957947 625.759094,335.425385 
	C614.486572,337.896973 602.809082,336.501617 591.532471,339.116699 
	C586.800720,340.213989 582.081909,341.233459 577.874329,343.716797 
	C571.248413,347.627411 567.394531,353.285797 567.303711,361.209747 
	C567.287415,362.629028 567.772522,364.212952 565.996399,365.867218 
	C561.159851,361.504517 559.429932,355.724670 558.798462,349.713135 
	C557.469727,337.065247 564.055237,327.108795 576.324402,322.692566 
	C582.978271,320.297546 589.906433,319.596222 596.958252,319.685699 
	C601.281006,319.740540 605.673767,319.933197 609.918213,319.291473 
	C618.103455,318.053894 621.608887,311.506500 618.739319,303.758362 
	C615.561707,295.178284 608.660889,290.280640 601.099060,286.191986 
	C597.163757,284.064209 592.889526,282.563202 588.409912,280.627655 
z"/>
<path fill="#000000" opacity="1.000000" stroke="none" 
	d="
M428.872986,294.778625 
	C441.762604,289.594696 455.172058,287.250122 467.668610,282.107483 
	C472.287018,280.206879 476.975983,278.459381 480.687469,274.901459 
	C486.242493,269.576263 487.402771,263.381683 484.308228,256.272095 
	C483.642700,254.743073 481.931000,253.333618 483.056519,251.281509 
	C489.383575,254.379745 493.913757,266.530182 492.017578,274.824127 
	C490.387634,281.953552 486.265991,287.118683 479.899933,290.495697 
	C467.931274,296.844788 454.800385,300.261902 442.290314,305.249390 
	C437.327820,307.227844 432.389282,309.295166 428.212585,312.695831 
	C417.706451,321.250000 416.999420,333.054047 425.886017,343.266998 
	C430.007690,348.003845 435.296906,351.161011 440.892120,353.853973 
	C454.143463,360.231903 468.220490,364.356354 482.095673,369.045105 
	C490.477722,371.877563 498.668640,375.181824 505.447418,381.142487 
	C516.427979,390.797882 516.382019,408.518372 505.316467,415.963318 
	C500.277191,419.353760 494.403076,419.971191 488.583649,420.196747 
	C480.716309,420.501556 473.008575,421.392914 465.584442,424.150146 
	C462.815094,425.178650 459.630829,425.137146 458.793060,422.132996 
	C457.871124,418.826965 455.415375,414.679138 459.981567,411.795685 
	C465.273865,408.453766 471.298004,408.153137 477.288910,407.851746 
	C479.612030,407.734863 481.960419,408.047546 484.276764,407.880280 
	C492.629242,407.277222 495.724609,400.736755 490.873413,393.796082 
	C487.332764,388.730408 482.282227,385.553619 476.667480,383.147186 
	C466.813507,378.923798 456.383240,376.725830 446.033752,374.212952 
	C434.388184,371.385345 422.753265,368.568054 412.278412,362.318359 
	C389.056396,348.463318 388.197510,318.839783 410.627960,303.723755 
	C416.198181,299.969910 422.294647,297.331116 428.872986,294.778625 
z"/>
<path fill="#000000" opacity="1.000000" stroke="none" 
	d="
M740.296021,643.000000 
	C740.294495,651.160522 740.061035,658.830688 740.377319,666.478088 
	C740.569458,671.123535 739.236023,673.376099 734.285767,672.963074 
	C730.514648,672.648438 726.734619,672.568848 727.095093,678.282043 
	C727.220398,680.267822 725.249207,680.342102 723.736755,680.345459 
	C713.744873,680.367920 703.752686,680.313293 693.761292,680.383423 
	C690.609558,680.405579 689.825073,678.723206 689.794312,675.972168 
	C689.762268,673.108765 690.780823,671.636292 693.850464,671.676941 
	C700.343994,671.763123 706.852234,671.443115 713.330139,671.770264 
	C717.849854,671.998535 719.045410,670.213196 718.972168,665.971375 
	C718.765076,653.984619 718.895752,641.991821 718.917969,630.001404 
	C718.931458,622.720825 718.952087,622.730652 726.377563,622.599304 
	C727.685974,622.576233 728.992249,622.433777 730.671143,622.321594 
	C731.430664,617.772461 731.108765,613.325745 730.852722,608.918030 
	C730.667969,605.737366 727.993835,606.273254 725.899963,606.199951 
	C718.923218,605.955688 718.903259,605.969482 718.897583,599.158569 
	C718.887878,587.667725 718.787170,576.174988 718.976074,564.687134 
	C719.042175,560.665894 717.804077,558.965698 713.574158,559.144653 
	C707.257446,559.411926 700.918518,559.105408 694.593201,559.237732 
	C691.241943,559.307861 689.763489,558.094788 689.736877,554.607849 
	C689.710754,551.179443 691.026489,549.802734 694.444153,549.836853 
	C703.768982,549.930054 713.095947,549.903442 722.421082,549.816467 
	C725.560425,549.787231 727.631897,550.524902 727.357727,554.250000 
	C727.068298,558.180664 729.978149,557.732544 732.466492,557.780457 
	C740.288818,557.931152 740.296204,557.931396 740.295471,565.804871 
	C740.294373,577.961853 740.277954,590.118774 740.275879,602.275757 
	C740.274658,609.560547 740.281616,609.658325 747.543579,609.642151 
	C750.955872,609.634521 753.500671,610.020569 753.219421,614.408020 
	C753.050720,617.039368 752.175964,618.498230 749.371216,618.385315 
	C748.041443,618.331787 746.691284,618.523682 745.377991,618.369202 
	C741.414734,617.902893 740.083496,619.619995 740.233093,623.517456 
	C740.475708,629.836487 740.296692,636.171631 740.296021,643.000000 
z"/>
</svg>